<?xml version="1.0" standalone="no"?>
<svg xmlns:xlink="http://www.w3.org/1999/xlink" id="wave" style="transform:rotate(0deg); transition: 0.3s" viewBox="0 0 1440 150" version="1.1" xmlns="http://www.w3.org/2000/svg"><defs><linearGradient id="sw-gradient-0" x1="0" x2="0" y1="1" y2="0"><stop stop-color="rgba(0, 127, 255, 1)" offset="0%"/><stop stop-color="rgba(55.219, 154.718, 255, 1)" offset="100%"/></linearGradient></defs><path style="transform:translate(0, 0px); opacity:1" fill="url(#sw-gradient-0)" d="M0,45L40,40C80,35,160,25,240,37.5C320,50,400,85,480,102.5C560,120,640,120,720,102.5C800,85,880,50,960,52.5C1040,55,1120,95,1200,105C1280,115,1360,95,1440,77.5C1520,60,1600,45,1680,55C1760,65,1840,100,1920,117.5C2000,135,2080,135,2160,130C2240,125,2320,115,2400,102.5C2480,90,2560,75,2640,77.5C2720,80,2800,100,2880,95C2960,90,3040,60,3120,55C3200,50,3280,70,3360,80C3440,90,3520,90,3600,77.5C3680,65,3760,40,3840,45C3920,50,4000,85,4080,97.5C4160,110,4240,100,4320,100C4400,100,4480,110,4560,117.5C4640,125,4720,130,4800,117.5C4880,105,4960,75,5040,57.5C5120,40,5200,35,5280,47.5C5360,60,5440,90,5520,97.5C5600,105,5680,90,5720,82.5L5760,75L5760,150L5720,150C5680,150,5600,150,5520,150C5440,150,5360,150,5280,150C5200,150,5120,150,5040,150C4960,150,4880,150,4800,150C4720,150,4640,150,4560,150C4480,150,4400,150,4320,150C4240,150,4160,150,4080,150C4000,150,3920,150,3840,150C3760,150,3680,150,3600,150C3520,150,3440,150,3360,150C3280,150,3200,150,3120,150C3040,150,2960,150,2880,150C2800,150,2720,150,2640,150C2560,150,2480,150,2400,150C2320,150,2240,150,2160,150C2080,150,2000,150,1920,150C1840,150,1760,150,1680,150C1600,150,1520,150,1440,150C1360,150,1280,150,1200,150C1120,150,1040,150,960,150C880,150,800,150,720,150C640,150,560,150,480,150C400,150,320,150,240,150C160,150,80,150,40,150L0,150Z"/><defs><linearGradient id="sw-gradient-1" x1="0" x2="0" y1="1" y2="0"><stop stop-color="rgba(0, 127, 255, 1)" offset="0%"/><stop stop-color="rgba(0, 127, 255, 1)" offset="100%"/></linearGradient></defs><path style="transform:translate(0, 50px); opacity:0.9" fill="url(#sw-gradient-1)" d="M0,30L40,42.5C80,55,160,80,240,82.5C320,85,400,65,480,52.5C560,40,640,35,720,42.5C800,50,880,70,960,82.5C1040,95,1120,100,1200,92.5C1280,85,1360,65,1440,55C1520,45,1600,45,1680,50C1760,55,1840,65,1920,67.5C2000,70,2080,65,2160,62.5C2240,60,2320,60,2400,52.5C2480,45,2560,30,2640,42.5C2720,55,2800,95,2880,115C2960,135,3040,135,3120,122.5C3200,110,3280,85,3360,77.5C3440,70,3520,80,3600,87.5C3680,95,3760,100,3840,95C3920,90,4000,75,4080,72.5C4160,70,4240,80,4320,72.5C4400,65,4480,40,4560,45C4640,50,4720,85,4800,100C4880,115,4960,110,5040,95C5120,80,5200,55,5280,37.5C5360,20,5440,10,5520,20C5600,30,5680,60,5720,75L5760,90L5760,150L5720,150C5680,150,5600,150,5520,150C5440,150,5360,150,5280,150C5200,150,5120,150,5040,150C4960,150,4880,150,4800,150C4720,150,4640,150,4560,150C4480,150,4400,150,4320,150C4240,150,4160,150,4080,150C4000,150,3920,150,3840,150C3760,150,3680,150,3600,150C3520,150,3440,150,3360,150C3280,150,3200,150,3120,150C3040,150,2960,150,2880,150C2800,150,2720,150,2640,150C2560,150,2480,150,2400,150C2320,150,2240,150,2160,150C2080,150,2000,150,1920,150C1840,150,1760,150,1680,150C1600,150,1520,150,1440,150C1360,150,1280,150,1200,150C1120,150,1040,150,960,150C880,150,800,150,720,150C640,150,560,150,480,150C400,150,320,150,240,150C160,150,80,150,40,150L0,150Z"/></svg>